<?xml version="1.0" standalone="no"?>
<!DOCTYPE svg PUBLIC "-//W3C//DTD SVG 20010904//EN"
 "http://www.w3.org/TR/2001/REC-SVG-20010904/DTD/svg10.dtd">
<svg version="1.0" xmlns="http://www.w3.org/2000/svg"
 width="1368.000000pt" height="1368.000000pt" viewBox="0 0 1368.000000 1368.000000"
 preserveAspectRatio="xMidYMid meet">

<g transform="translate(0.000000,1368.000000) scale(0.100000,-0.100000)"
fill="#000000" stroke="none">
<path d="M0 6840 l0 -6840 6840 0 6840 0 0 6840 0 6840 -6840 0 -6840 0 0
-6840z m5943 3053 c-128 -2 -338 -2 -465 0 -128 1 -24 2 232 2 256 0 360 -1
233 -2z m264 1 c-3 -3 -12 -4 -19 -1 -8 3 -5 6 6 6 11 1 17 -2 13 -5z m2861
-1 c-302 -2 -794 -2 -1095 0 -302 1 -55 2 547 2 602 0 849 -1 548 -2z m1343
-290 c13 -16 12 -17 -3 -4 -10 7 -18 15 -18 17 0 8 8 3 21 -13z m-5971 -36 c0
-2 -15 -16 -32 -33 l-33 -29 29 33 c28 30 36 37 36 29z m6105 -97 c10 -11 16
-20 13 -20 -3 0 -13 9 -23 20 -10 11 -16 20 -13 20 3 0 13 -9 23 -20z m-6488
-3722 c-1 -552 -2 -101 -2 1002 0 1103 1 1554 2 1003 2 -552 2 -1454 0 -2005z
m6558 2405 c-542 -7 -983 -7 -978 0 2 4 271 6 596 5 326 -2 498 -4 382 -5z
m-72 -2820 c-161 -2 -425 -2 -586 0 -160 1 -29 2 293 2 322 0 453 -1 293 -2z
m17 -1297 c0 -2 -8 -10 -17 -17 -16 -13 -17 -12 -4 4 13 16 21 21 21 13z
m-6145 -86 c21 -22 37 -40 34 -40 -3 0 -23 18 -44 40 -21 22 -37 40 -34 40 3
0 23 -18 44 -40z m6005 -54 c0 -2 -8 -10 -17 -17 -16 -13 -17 -12 -4 4 13 16
21 21 21 13z m-4707 -303 c-89 -2 -237 -2 -330 0 -92 1 -19 3 162 3 182 0 257
-2 168 -3z m3470 0 c-276 -2 -730 -2 -1010 0 -279 1 -53 2 502 2 556 0 784 -1
508 -2z"/>
</g>
</svg>
